<?xml version="1.0" encoding="UTF-8"?>
<svg xmlns="http://www.w3.org/2000/svg" xmlns:xlink="http://www.w3.org/1999/xlink" width="40px" height="40px" viewBox="0 0 40 40" version="1.1">
<g id="surface1">
<path style=" stroke:none;fill-rule:nonzero;fill:rgb(0%,0%,0%);fill-opacity:1;" d="M 20.464844 4.195312 C 21.214844 4.195312 21.960938 4.195312 22.734375 4.195312 C 22.734375 4.621094 22.734375 5.046875 22.734375 5.484375 C 22.382812 5.484375 22.03125 5.484375 21.667969 5.484375 C 21.667969 5.769531 21.667969 6.050781 21.667969 6.34375 C 22.347656 6.34375 23.03125 6.34375 23.734375 6.34375 C 23.734375 5.988281 23.734375 5.632812 23.734375 5.269531 C 24.085938 5.269531 24.4375 5.269531 24.800781 5.269531 C 24.800781 4.914062 24.800781 4.558594 24.800781 4.195312 C 25.546875 4.195312 26.296875 4.195312 27.066406 4.195312 C 27.066406 5.328125 27.066406 6.464844 27.066406 7.632812 C 26.320312 7.632812 25.570312 7.632812 24.800781 7.632812 C 24.800781 7.28125 24.800781 6.925781 24.800781 6.558594 C 24.492188 6.558594 24.183594 6.558594 23.867188 6.558594 C 23.867188 7.234375 23.867188 7.90625 23.867188 8.601562 C 24.21875 8.601562 24.570312 8.601562 24.933594 8.601562 C 24.933594 9.667969 24.933594 10.730469 24.933594 11.828125 C 25.242188 11.828125 25.550781 11.828125 25.867188 11.828125 C 25.867188 11.472656 25.867188 11.117188 25.867188 10.753906 C 26.261719 10.753906 26.660156 10.753906 27.066406 10.753906 C 27.066406 12.527344 27.066406 14.300781 27.066406 16.128906 C 27.75 16.128906 28.429688 16.128906 29.132812 16.128906 C 29.132812 15.84375 29.132812 15.5625 29.132812 15.269531 C 28.78125 15.269531 28.429688 15.269531 28.066406 15.269531 C 28.066406 14.488281 28.066406 13.707031 28.066406 12.902344 C 28.816406 12.902344 29.5625 12.902344 30.332031 12.902344 C 30.332031 13.96875 30.332031 15.03125 30.332031 16.128906 C 31.324219 16.074219 31.324219 16.074219 32.332031 16.023438 C 32.332031 15.773438 32.332031 15.523438 32.332031 15.269531 C 32.003906 15.269531 31.671875 15.269531 31.332031 15.269531 C 31.332031 14.488281 31.332031 13.707031 31.332031 12.902344 C 31.707031 12.902344 32.082031 12.902344 32.464844 12.902344 C 32.464844 13.613281 32.464844 14.324219 32.464844 15.054688 C 32.796875 15.054688 33.125 15.054688 33.464844 15.054688 C 33.464844 14.699219 33.464844 14.34375 33.464844 13.976562 C 34.214844 13.976562 34.960938 13.976562 35.734375 13.976562 C 35.734375 14.757812 35.734375 15.539062 35.734375 16.34375 C 35.335938 16.34375 34.941406 16.34375 34.535156 16.34375 C 34.535156 15.988281 34.535156 15.632812 34.535156 15.269531 C 34.226562 15.269531 33.917969 15.269531 33.601562 15.269531 C 33.601562 15.503906 33.601562 15.503906 33.605469 15.746094 C 33.605469 15.910156 33.605469 16.074219 33.601562 16.238281 C 33.535156 16.34375 33.535156 16.34375 33.292969 16.355469 C 33.195312 16.355469 33.09375 16.351562 32.996094 16.351562 C 32.820312 16.347656 32.648438 16.347656 32.464844 16.34375 C 32.464844 17.335938 32.464844 18.332031 32.464844 19.355469 C 32.839844 19.355469 33.214844 19.355469 33.601562 19.355469 C 33.601562 19.78125 33.601562 20.207031 33.601562 20.644531 C 33.226562 20.644531 32.851562 20.644531 32.464844 20.644531 C 32.464844 21 32.464844 21.355469 32.464844 21.71875 C 31.761719 21.71875 31.058594 21.71875 30.332031 21.71875 C 30.332031 22.074219 30.332031 22.429688 30.332031 22.796875 C 29.980469 22.796875 29.628906 22.796875 29.265625 22.796875 C 29.265625 23.152344 29.265625 23.503906 29.265625 23.871094 C 28.496094 23.871094 27.726562 23.871094 26.933594 23.871094 C 26.933594 23.515625 26.933594 23.160156 26.933594 22.796875 C 26.582031 22.796875 26.230469 22.796875 25.867188 22.796875 C 25.867188 22.441406 25.867188 22.085938 25.867188 21.71875 C 25.558594 21.71875 25.25 21.71875 24.933594 21.71875 C 24.933594 22.359375 24.933594 22.996094 24.933594 23.65625 C 25.285156 23.65625 25.636719 23.65625 26 23.65625 C 26 24.011719 26 24.367188 26 24.730469 C 26.144531 24.730469 26.144531 24.730469 26.292969 24.730469 C 26.648438 24.726562 27.007812 24.726562 27.363281 24.726562 C 27.519531 24.726562 27.671875 24.722656 27.828125 24.722656 C 28.050781 24.722656 28.273438 24.722656 28.492188 24.71875 C 28.5625 24.71875 28.632812 24.71875 28.703125 24.71875 C 28.769531 24.71875 28.832031 24.71875 28.898438 24.71875 C 28.957031 24.71875 29.011719 24.71875 29.070312 24.71875 C 29.199219 24.730469 29.199219 24.730469 29.265625 24.839844 C 29.265625 25.15625 29.265625 25.476562 29.265625 25.804688 C 29.949219 25.804688 30.628906 25.804688 31.332031 25.804688 C 31.332031 25.523438 31.332031 25.238281 31.332031 24.945312 C 30.960938 24.945312 30.585938 24.945312 30.199219 24.945312 C 30.199219 24.519531 30.199219 24.09375 30.199219 23.65625 C 30.574219 23.65625 30.949219 23.65625 31.332031 23.65625 C 31.332031 23.300781 31.332031 22.945312 31.332031 22.582031 C 31.707031 22.582031 32.082031 22.582031 32.464844 22.582031 C 32.464844 22.933594 32.464844 23.289062 32.464844 23.65625 C 32.542969 23.65625 32.617188 23.652344 32.699219 23.652344 C 32.796875 23.652344 32.894531 23.648438 32.996094 23.648438 C 33.046875 23.648438 33.097656 23.648438 33.148438 23.644531 C 33.277344 23.644531 33.40625 23.648438 33.535156 23.65625 C 33.601562 23.761719 33.601562 23.761719 33.605469 23.984375 C 33.605469 24.234375 33.601562 24.484375 33.601562 24.730469 C 33.90625 24.730469 34.214844 24.730469 34.535156 24.730469 C 34.535156 24.09375 34.535156 23.453125 34.535156 22.796875 C 34.179688 22.796875 33.828125 22.796875 33.464844 22.796875 C 33.464844 22.371094 33.464844 21.945312 33.464844 21.503906 C 34.214844 21.503906 34.960938 21.503906 35.734375 21.503906 C 35.734375 22.640625 35.734375 23.777344 35.734375 24.945312 C 35.382812 24.945312 35.03125 24.945312 34.667969 24.945312 C 34.667969 25.585938 34.667969 26.222656 34.667969 26.882812 C 35.019531 26.882812 35.371094 26.882812 35.734375 26.882812 C 35.734375 27.664062 35.734375 28.441406 35.734375 29.246094 C 35.382812 29.246094 35.03125 29.246094 34.667969 29.246094 C 34.667969 30.277344 34.667969 31.304688 34.667969 32.367188 C 35.019531 32.367188 35.371094 32.367188 35.734375 32.367188 C 35.734375 32.792969 35.734375 33.21875 35.734375 33.65625 C 34.65625 33.65625 33.578125 33.65625 32.464844 33.65625 C 32.464844 34.367188 32.464844 35.074219 32.464844 35.804688 C 31.367188 35.804688 30.265625 35.804688 29.132812 35.804688 C 29.132812 35.378906 29.132812 34.953125 29.132812 34.515625 C 29.859375 34.515625 30.585938 34.515625 31.332031 34.515625 C 31.332031 34.230469 31.332031 33.949219 31.332031 33.65625 C 30.605469 33.65625 29.882812 33.65625 29.132812 33.65625 C 29.132812 32.910156 29.132812 32.164062 29.132812 31.398438 C 28.824219 31.398438 28.515625 31.398438 28.199219 31.398438 C 28.199219 31.550781 28.203125 31.707031 28.203125 31.863281 C 28.203125 32.066406 28.203125 32.265625 28.203125 32.464844 C 28.203125 32.566406 28.207031 32.667969 28.207031 32.773438 C 28.207031 32.917969 28.207031 32.917969 28.207031 33.066406 C 28.207031 33.203125 28.207031 33.203125 28.207031 33.339844 C 28.199219 33.546875 28.199219 33.546875 28.132812 33.65625 C 27.953125 33.664062 27.777344 33.664062 27.597656 33.664062 C 27.546875 33.664062 27.496094 33.660156 27.441406 33.660156 C 27.316406 33.660156 27.191406 33.65625 27.066406 33.65625 C 27.066406 33.941406 27.066406 34.222656 27.066406 34.515625 C 27.441406 34.515625 27.816406 34.515625 28.199219 34.515625 C 28.207031 35.429688 28.207031 35.429688 28.199219 35.699219 C 28.085938 35.882812 27.945312 35.820312 27.792969 35.820312 C 27.746094 35.820312 27.695312 35.820312 27.648438 35.820312 C 27.597656 35.820312 27.550781 35.820312 27.5 35.820312 C 27.398438 35.820312 27.292969 35.820312 27.191406 35.820312 C 27.035156 35.820312 26.875 35.820312 26.71875 35.820312 C 26.617188 35.820312 26.519531 35.820312 26.417969 35.820312 C 26.347656 35.820312 26.347656 35.820312 26.273438 35.820312 C 25.941406 35.820312 25.941406 35.820312 25.867188 35.699219 C 25.859375 35.46875 25.859375 35.238281 25.859375 35.007812 C 25.859375 34.867188 25.859375 34.726562 25.859375 34.582031 C 25.863281 34.433594 25.863281 34.28125 25.863281 34.132812 C 25.863281 33.984375 25.863281 33.832031 25.863281 33.683594 C 25.863281 33.316406 25.867188 32.949219 25.867188 32.582031 C 25.558594 32.582031 25.25 32.582031 24.933594 32.582031 C 24.933594 32.726562 24.933594 32.875 24.9375 33.023438 C 24.9375 33.214844 24.9375 33.40625 24.9375 33.59375 C 24.9375 33.691406 24.9375 33.789062 24.9375 33.886719 C 24.941406 34.027344 24.941406 34.027344 24.941406 34.167969 C 24.941406 34.292969 24.941406 34.292969 24.941406 34.425781 C 24.933594 34.625 24.933594 34.625 24.867188 34.730469 C 24.675781 34.738281 24.488281 34.742188 24.296875 34.738281 C 24.242188 34.738281 24.1875 34.738281 24.132812 34.738281 C 24 34.734375 23.867188 34.734375 23.734375 34.730469 C 23.734375 34.375 23.734375 34.023438 23.734375 33.65625 C 23.382812 33.65625 23.03125 33.65625 22.667969 33.65625 C 22.667969 32.164062 22.667969 30.675781 22.667969 29.140625 C 23.0625 29.140625 23.457031 29.140625 23.867188 29.140625 C 23.867188 30.203125 23.867188 31.269531 23.867188 32.367188 C 24.175781 32.367188 24.484375 32.367188 24.800781 32.367188 C 24.800781 31.300781 24.800781 30.238281 24.800781 29.140625 C 25.152344 29.140625 25.503906 29.140625 25.867188 29.140625 C 25.867188 28.464844 25.867188 27.792969 25.867188 27.097656 C 25.515625 27.097656 25.164062 27.097656 24.800781 27.097656 C 24.800781 26.742188 24.800781 26.386719 24.800781 26.023438 C 24.449219 26.023438 24.097656 26.023438 23.734375 26.023438 C 23.734375 25.59375 23.734375 25.167969 23.734375 24.730469 C 24.085938 24.730469 24.4375 24.730469 24.800781 24.730469 C 24.800781 24.449219 24.800781 24.164062 24.800781 23.871094 C 24.449219 23.871094 24.097656 23.871094 23.734375 23.871094 C 23.734375 23.515625 23.734375 23.160156 23.734375 22.796875 C 23.402344 22.796875 23.074219 22.796875 22.734375 22.796875 C 22.734375 24.144531 22.734375 25.492188 22.734375 26.882812 C 23.085938 26.882812 23.4375 26.882812 23.800781 26.882812 C 23.988281 27.1875 23.867188 27.742188 23.867188 28.171875 C 23.140625 28.171875 22.414062 28.171875 21.667969 28.171875 C 21.667969 28.882812 21.667969 29.589844 21.667969 30.324219 C 21.316406 30.324219 20.960938 30.324219 20.601562 30.324219 C 20.601562 30.996094 20.601562 31.671875 20.601562 32.367188 C 20.953125 32.367188 21.304688 32.367188 21.667969 32.367188 C 21.667969 32.792969 21.667969 33.21875 21.667969 33.65625 C 21.316406 33.65625 20.960938 33.65625 20.601562 33.65625 C 20.601562 33.941406 20.601562 34.222656 20.601562 34.515625 C 21.304688 34.515625 22.007812 34.515625 22.734375 34.515625 C 22.734375 34.941406 22.734375 35.367188 22.734375 35.804688 C 21.984375 35.804688 21.238281 35.804688 20.464844 35.804688 C 20.464844 35.453125 20.464844 35.097656 20.464844 34.730469 C 20.359375 34.734375 20.359375 34.734375 20.25 34.734375 C 20.15625 34.734375 20.0625 34.738281 19.972656 34.738281 C 19.921875 34.738281 19.875 34.738281 19.828125 34.742188 C 19.707031 34.742188 19.585938 34.738281 19.464844 34.730469 C 19.398438 34.625 19.398438 34.625 19.394531 34.402344 C 19.394531 34.152344 19.398438 33.90625 19.398438 33.65625 C 19.09375 33.65625 18.785156 33.65625 18.464844 33.65625 C 18.46875 33.800781 18.46875 33.949219 18.46875 34.097656 C 18.46875 34.289062 18.46875 34.480469 18.472656 34.671875 C 18.472656 34.765625 18.472656 34.863281 18.472656 34.964844 C 18.472656 35.054688 18.472656 35.148438 18.472656 35.242188 C 18.472656 35.328125 18.472656 35.410156 18.472656 35.5 C 18.464844 35.699219 18.464844 35.699219 18.398438 35.804688 C 18.261719 35.816406 18.125 35.820312 17.988281 35.820312 C 17.925781 35.820312 17.925781 35.820312 17.859375 35.820312 C 17.714844 35.820312 17.574219 35.816406 17.429688 35.816406 C 17.332031 35.816406 17.234375 35.816406 17.136719 35.816406 C 16.875 35.816406 16.617188 35.816406 16.355469 35.8125 C 16.089844 35.8125 15.824219 35.8125 15.5625 35.8125 C 15.039062 35.8125 14.519531 35.808594 14 35.804688 C 14 35.453125 14 35.097656 14 34.730469 C 13.648438 34.730469 13.296875 34.730469 12.933594 34.730469 C 12.933594 33.949219 12.933594 33.167969 12.933594 32.367188 C 13.285156 32.367188 13.636719 32.367188 14 32.367188 C 14 31.300781 14 30.238281 14 29.140625 C 14.351562 29.140625 14.703125 29.140625 15.066406 29.140625 C 15.066406 28.820312 15.066406 28.5 15.066406 28.171875 C 14.363281 28.171875 13.660156 28.171875 12.933594 28.171875 C 12.933594 27.816406 12.933594 27.460938 12.933594 27.097656 C 11.503906 27.097656 10.074219 27.097656 8.601562 27.097656 C 8.601562 25.914062 8.601562 25.914062 8.667969 25.804688 C 8.835938 25.796875 9.003906 25.796875 9.171875 25.800781 C 9.242188 25.800781 9.242188 25.800781 9.316406 25.800781 C 9.433594 25.800781 9.550781 25.804688 9.667969 25.804688 C 9.667969 25.523438 9.667969 25.238281 9.667969 24.945312 C 9.007812 24.945312 8.347656 24.945312 7.667969 24.945312 C 7.667969 25.65625 7.667969 26.367188 7.667969 27.097656 C 7.25 27.097656 6.832031 27.097656 6.398438 27.097656 C 6.398438 26.742188 6.398438 26.386719 6.398438 26.023438 C 5.695312 26.023438 4.992188 26.023438 4.265625 26.023438 C 4.265625 25.59375 4.265625 25.167969 4.265625 24.730469 C 4.96875 24.730469 5.675781 24.730469 6.398438 24.730469 C 6.398438 24.09375 6.398438 23.453125 6.398438 22.796875 C 6.09375 22.796875 5.785156 22.796875 5.464844 22.796875 C 5.464844 23.152344 5.464844 23.503906 5.464844 23.871094 C 5.070312 23.871094 4.675781 23.871094 4.265625 23.871094 C 4.265625 23.089844 4.265625 22.308594 4.265625 21.503906 C 5.015625 21.503906 5.761719 21.503906 6.535156 21.503906 C 6.535156 21.859375 6.535156 22.214844 6.535156 22.582031 C 6.609375 22.578125 6.6875 22.578125 6.765625 22.578125 C 6.863281 22.574219 6.964844 22.574219 7.0625 22.574219 C 7.113281 22.574219 7.164062 22.570312 7.214844 22.570312 C 7.34375 22.570312 7.472656 22.574219 7.601562 22.582031 C 7.667969 22.6875 7.667969 22.6875 7.671875 22.910156 C 7.671875 23.160156 7.667969 23.40625 7.667969 23.65625 C 7.976562 23.65625 8.28125 23.65625 8.601562 23.65625 C 8.601562 23.300781 8.601562 22.945312 8.601562 22.582031 C 8.996094 22.582031 9.390625 22.582031 9.800781 22.582031 C 9.800781 22.933594 9.800781 23.289062 9.800781 23.65625 C 10.460938 23.65625 11.121094 23.65625 11.800781 23.65625 C 11.800781 23.371094 11.800781 23.089844 11.800781 22.796875 C 11.449219 22.796875 11.097656 22.796875 10.734375 22.796875 C 10.734375 22.441406 10.734375 22.085938 10.734375 21.71875 C 9.675781 21.71875 8.621094 21.71875 7.535156 21.71875 C 7.535156 21.292969 7.535156 20.867188 7.535156 20.429688 C 8.589844 20.429688 9.644531 20.429688 10.734375 20.429688 C 10.734375 20.144531 10.734375 19.863281 10.734375 19.570312 C 9.675781 19.570312 8.621094 19.570312 7.535156 19.570312 C 7.535156 19.214844 7.535156 18.859375 7.535156 18.496094 C 7.203125 18.496094 6.875 18.496094 6.535156 18.496094 C 6.535156 18.847656 6.535156 19.203125 6.535156 19.570312 C 5.785156 19.570312 5.039062 19.570312 4.265625 19.570312 C 4.265625 18.433594 4.265625 17.300781 4.265625 16.128906 C 4.664062 16.128906 5.058594 16.128906 5.464844 16.128906 C 5.464844 16.484375 5.464844 16.839844 5.464844 17.203125 C 7.558594 17.203125 9.648438 17.203125 11.800781 17.203125 C 11.800781 16.921875 11.800781 16.636719 11.800781 16.34375 C 11.691406 16.347656 11.691406 16.347656 11.582031 16.347656 C 11.492188 16.347656 11.398438 16.351562 11.304688 16.351562 C 11.257812 16.351562 11.210938 16.351562 11.160156 16.355469 C 11.039062 16.355469 10.921875 16.351562 10.800781 16.34375 C 10.777344 16.308594 10.757812 16.273438 10.734375 16.238281 C 10.734375 15.917969 10.734375 15.597656 10.734375 15.269531 C 10.050781 15.269531 9.371094 15.269531 8.667969 15.269531 C 8.667969 15.625 8.667969 15.976562 8.667969 16.34375 C 8.292969 16.34375 7.917969 16.34375 7.535156 16.34375 C 7.535156 15.988281 7.535156 15.632812 7.535156 15.269531 C 7.46875 15.269531 7.40625 15.269531 7.339844 15.269531 C 7.101562 15.273438 6.863281 15.273438 6.625 15.273438 C 6.523438 15.273438 6.417969 15.277344 6.316406 15.277344 C 6.167969 15.277344 6.019531 15.277344 5.875 15.28125 C 5.804688 15.28125 5.804688 15.28125 5.734375 15.28125 C 5.621094 15.28125 5.511719 15.277344 5.398438 15.269531 C 5.332031 15.160156 5.332031 15.160156 5.324219 14.941406 C 5.324219 14.847656 5.328125 14.753906 5.328125 14.65625 C 5.328125 14.519531 5.328125 14.519531 5.328125 14.378906 C 5.328125 14.261719 5.328125 14.144531 5.328125 14.027344 C 5.332031 13.65625 5.332031 13.285156 5.332031 12.902344 C 6.101562 12.902344 6.875 12.902344 7.667969 12.902344 C 7.667969 13.613281 7.667969 14.324219 7.667969 15.054688 C 7.976562 15.054688 8.28125 15.054688 8.601562 15.054688 C 8.601562 14.699219 8.601562 14.34375 8.601562 13.976562 C 9.304688 13.976562 10.007812 13.976562 10.734375 13.976562 C 10.734375 13.625 10.734375 13.269531 10.734375 12.902344 C 11.128906 12.902344 11.523438 12.902344 11.933594 12.902344 C 11.933594 13.328125 11.933594 13.753906 11.933594 14.195312 C 11.582031 14.195312 11.230469 14.195312 10.867188 14.195312 C 10.867188 14.476562 10.867188 14.761719 10.867188 15.054688 C 11.21875 15.054688 11.570312 15.054688 11.933594 15.054688 C 11.933594 15.410156 11.933594 15.761719 11.933594 16.128906 C 12.261719 16.128906 12.59375 16.128906 12.933594 16.128906 C 12.933594 15.417969 12.933594 14.710938 12.933594 13.976562 C 13.285156 13.976562 13.636719 13.976562 14 13.976562 C 14 13.695312 14 13.410156 14 13.117188 C 13.648438 13.117188 13.296875 13.117188 12.933594 13.117188 C 12.933594 11.984375 12.933594 10.847656 12.933594 9.675781 C 13.679688 9.675781 14.429688 9.675781 15.199219 9.675781 C 15.199219 10.03125 15.199219 10.386719 15.199219 10.753906 C 15.550781 10.753906 15.902344 10.753906 16.265625 10.753906 C 16.265625 11.144531 16.265625 11.535156 16.265625 11.933594 C 15.914062 11.933594 15.5625 11.933594 15.199219 11.933594 C 15.199219 12.253906 15.199219 12.574219 15.199219 12.902344 C 15.550781 12.902344 15.902344 12.902344 16.265625 12.902344 C 16.265625 15.101562 16.265625 17.304688 16.265625 19.570312 C 15.519531 19.570312 14.769531 19.570312 14 19.570312 C 14 19.214844 14 18.859375 14 18.496094 C 13.691406 18.496094 13.382812 18.496094 13.066406 18.496094 C 13.070312 18.730469 13.070312 18.730469 13.070312 18.972656 C 13.070312 19.136719 13.070312 19.300781 13.066406 19.460938 C 13 19.570312 13 19.570312 12.761719 19.582031 C 12.660156 19.578125 12.5625 19.578125 12.460938 19.578125 C 12.410156 19.574219 12.363281 19.574219 12.308594 19.574219 C 12.183594 19.574219 12.058594 19.570312 11.933594 19.570312 C 11.933594 19.925781 11.933594 20.28125 11.933594 20.644531 C 11.582031 20.644531 11.230469 20.644531 10.867188 20.644531 C 10.867188 20.929688 10.867188 21.214844 10.867188 21.503906 C 11.21875 21.503906 11.570312 21.503906 11.933594 21.503906 C 11.933594 21.859375 11.933594 22.214844 11.933594 22.582031 C 12.007812 22.578125 12.085938 22.578125 12.164062 22.578125 C 12.265625 22.574219 12.363281 22.574219 12.460938 22.574219 C 12.511719 22.574219 12.5625 22.570312 12.613281 22.570312 C 12.742188 22.570312 12.871094 22.574219 13 22.582031 C 13.066406 22.6875 13.066406 22.6875 13.066406 23.65625 C 13.726562 23.65625 14.386719 23.65625 15.066406 23.65625 C 15.066406 23.371094 15.066406 23.089844 15.066406 22.796875 C 14.714844 22.796875 14.363281 22.796875 14 22.796875 C 14 22.441406 14 22.085938 14 21.71875 C 13.648438 21.71875 13.296875 21.71875 12.933594 21.71875 C 12.933594 21.292969 12.933594 20.867188 12.933594 20.429688 C 13.679688 20.429688 14.429688 20.429688 15.199219 20.429688 C 15.199219 21.140625 15.199219 21.847656 15.199219 22.582031 C 15.507812 22.582031 15.816406 22.582031 16.132812 22.582031 C 16.132812 21.871094 16.132812 21.160156 16.132812 20.429688 C 16.53125 20.429688 16.925781 20.429688 17.332031 20.429688 C 17.332031 21.140625 17.332031 21.847656 17.332031 22.582031 C 17.664062 22.582031 17.992188 22.582031 18.332031 22.582031 C 18.332031 21.515625 18.332031 20.453125 18.332031 19.355469 C 18.683594 19.355469 19.039062 19.355469 19.398438 19.355469 C 19.398438 19 19.398438 18.644531 19.398438 18.28125 C 19.796875 18.28125 20.191406 18.28125 20.601562 18.28125 C 20.601562 18.707031 20.601562 19.132812 20.601562 19.570312 C 20.246094 19.570312 19.894531 19.570312 19.535156 19.570312 C 19.535156 19.855469 19.535156 20.136719 19.535156 20.429688 C 19.886719 20.429688 20.238281 20.429688 20.601562 20.429688 C 20.601562 20.785156 20.601562 21.140625 20.601562 21.503906 C 21.632812 21.503906 22.667969 21.503906 23.734375 21.503906 C 23.734375 21.222656 23.734375 20.9375 23.734375 20.644531 C 23.382812 20.644531 23.03125 20.644531 22.667969 20.644531 C 22.667969 20.289062 22.667969 19.933594 22.667969 19.570312 C 22.292969 19.570312 21.917969 19.570312 21.535156 19.570312 C 21.535156 18.859375 21.535156 18.152344 21.535156 17.417969 C 21.179688 17.417969 20.828125 17.417969 20.464844 17.417969 C 20.464844 16.992188 20.464844 16.566406 20.464844 16.128906 C 20.820312 16.128906 21.171875 16.128906 21.535156 16.128906 C 21.535156 15.773438 21.535156 15.417969 21.535156 15.054688 C 21.90625 15.054688 22.28125 15.054688 22.667969 15.054688 C 22.667969 14.769531 22.667969 14.484375 22.667969 14.195312 C 22.589844 14.195312 22.515625 14.195312 22.4375 14.199219 C 22.335938 14.199219 22.238281 14.199219 22.136719 14.199219 C 22.085938 14.199219 22.035156 14.203125 21.984375 14.203125 C 21.855469 14.203125 21.726562 14.199219 21.601562 14.195312 C 21.535156 14.085938 21.535156 14.085938 21.527344 13.863281 C 21.527344 13.617188 21.53125 13.367188 21.535156 13.117188 C 21.226562 13.117188 20.917969 13.117188 20.601562 13.117188 C 20.601562 13.828125 20.601562 14.539062 20.601562 15.269531 C 20.203125 15.269531 19.808594 15.269531 19.398438 15.269531 C 19.398438 14.914062 19.398438 14.558594 19.398438 14.195312 C 19.09375 14.195312 18.785156 14.195312 18.464844 14.195312 C 18.46875 14.429688 18.46875 14.429688 18.472656 14.671875 C 18.472656 14.835938 18.472656 14.996094 18.464844 15.160156 C 18.398438 15.269531 18.398438 15.269531 18.144531 15.28125 C 18.039062 15.277344 17.933594 15.277344 17.828125 15.277344 C 17.777344 15.273438 17.722656 15.273438 17.667969 15.273438 C 17.53125 15.273438 17.398438 15.269531 17.265625 15.269531 C 17.265625 14.84375 17.265625 14.417969 17.265625 13.976562 C 17.617188 13.976562 17.96875 13.976562 18.332031 13.976562 C 18.332031 13.695312 18.332031 13.410156 18.332031 13.117188 C 17.980469 13.117188 17.628906 13.117188 17.265625 13.117188 C 17.265625 12.019531 17.265625 10.917969 17.265625 9.785156 C 16.894531 9.785156 16.519531 9.785156 16.132812 9.785156 C 16.132812 9.394531 16.132812 9.003906 16.132812 8.601562 C 16.53125 8.601562 16.925781 8.601562 17.332031 8.601562 C 17.332031 8.957031 17.332031 9.3125 17.332031 9.675781 C 17.664062 9.675781 17.992188 9.675781 18.332031 9.675781 C 18.332031 8.222656 18.332031 6.769531 18.332031 5.269531 C 18.707031 5.269531 19.082031 5.269531 19.464844 5.269531 C 19.535156 5.375 19.535156 5.375 19.539062 5.574219 C 19.539062 5.660156 19.539062 5.746094 19.539062 5.832031 C 19.539062 5.917969 19.539062 6 19.539062 6.085938 C 19.539062 6.191406 19.539062 6.296875 19.539062 6.40625 C 19.535156 6.738281 19.535156 7.074219 19.535156 7.417969 C 20.191406 7.417969 20.851562 7.417969 21.535156 7.417969 C 21.535156 7.136719 21.535156 6.851562 21.535156 6.558594 C 21.179688 6.558594 20.828125 6.558594 20.464844 6.558594 C 20.464844 5.777344 20.464844 4.996094 20.464844 4.195312 Z M 24.933594 5.484375 C 24.933594 5.769531 24.933594 6.050781 24.933594 6.34375 C 25.242188 6.34375 25.550781 6.34375 25.867188 6.34375 C 25.867188 6.058594 25.867188 5.777344 25.867188 5.484375 C 25.558594 5.484375 25.25 5.484375 24.933594 5.484375 Z M 21.667969 7.632812 C 21.667969 7.953125 21.667969 8.273438 21.667969 8.601562 C 21.996094 8.601562 22.328125 8.601562 22.667969 8.601562 C 22.667969 8.28125 22.667969 7.964844 22.667969 7.632812 C 22.335938 7.632812 22.007812 7.632812 21.667969 7.632812 Z M 20.601562 8.710938 C 20.601562 9.738281 20.601562 10.769531 20.601562 11.828125 C 20.90625 11.828125 21.214844 11.828125 21.535156 11.828125 C 21.535156 10.800781 21.535156 9.769531 21.535156 8.710938 C 21.226562 8.710938 20.917969 8.710938 20.601562 8.710938 Z M 22.734375 8.710938 C 22.734375 9.027344 22.734375 9.347656 22.734375 9.675781 C 23.0625 9.675781 23.394531 9.675781 23.734375 9.675781 C 23.734375 9.359375 23.734375 9.039062 23.734375 8.710938 C 23.402344 8.710938 23.074219 8.710938 22.734375 8.710938 Z M 18.464844 9.785156 C 18.464844 10.460938 18.464844 11.132812 18.464844 11.828125 C 18.773438 11.828125 19.082031 11.828125 19.398438 11.828125 C 19.398438 11.152344 19.398438 10.480469 19.398438 9.785156 C 19.09375 9.785156 18.785156 9.785156 18.464844 9.785156 Z M 14.132812 10.859375 C 14.132812 11.179688 14.132812 11.5 14.132812 11.828125 C 14.441406 11.828125 14.75 11.828125 15.066406 11.828125 C 15.066406 11.507812 15.066406 11.1875 15.066406 10.859375 C 14.757812 10.859375 14.449219 10.859375 14.132812 10.859375 Z M 22.734375 10.859375 C 22.734375 11.179688 22.734375 11.5 22.734375 11.828125 C 23.0625 11.828125 23.394531 11.828125 23.734375 11.828125 C 23.734375 11.507812 23.734375 11.1875 23.734375 10.859375 C 23.402344 10.859375 23.074219 10.859375 22.734375 10.859375 Z M 21.667969 11.933594 C 21.667969 12.253906 21.667969 12.574219 21.667969 12.902344 C 21.996094 12.902344 22.328125 12.902344 22.667969 12.902344 C 22.667969 12.582031 22.667969 12.265625 22.667969 11.933594 C 22.335938 11.933594 22.007812 11.933594 21.667969 11.933594 Z M 23.867188 11.933594 C 23.84375 13 23.824219 14.066406 23.800781 15.160156 C 23.449219 15.195312 23.097656 15.230469 22.734375 15.269531 C 22.734375 15.625 22.734375 15.976562 22.734375 16.34375 C 22.382812 16.34375 22.03125 16.34375 21.667969 16.34375 C 21.667969 16.628906 21.667969 16.910156 21.667969 17.203125 C 22.019531 17.203125 22.371094 17.203125 22.734375 17.203125 C 22.734375 17.914062 22.734375 18.625 22.734375 19.355469 C 23.0625 19.355469 23.394531 19.355469 23.734375 19.355469 C 23.734375 19 23.734375 18.644531 23.734375 18.28125 C 24.4375 18.28125 25.140625 18.28125 25.867188 18.28125 C 25.867188 17.996094 25.867188 17.710938 25.867188 17.417969 C 25.515625 17.417969 25.164062 17.417969 24.800781 17.417969 C 24.800781 16.992188 24.800781 16.566406 24.800781 16.128906 C 25.152344 16.128906 25.503906 16.128906 25.867188 16.128906 C 25.867188 15.136719 25.867188 14.140625 25.867188 13.117188 C 25.535156 13.082031 25.207031 13.046875 24.867188 13.011719 C 24.84375 12.65625 24.824219 12.300781 24.800781 11.933594 C 24.492188 11.933594 24.183594 11.933594 23.867188 11.933594 Z M 14.132812 16.34375 C 14.132812 16.628906 14.132812 16.910156 14.132812 17.203125 C 14.441406 17.203125 14.75 17.203125 15.066406 17.203125 C 15.066406 16.921875 15.066406 16.636719 15.066406 16.34375 C 14.757812 16.34375 14.449219 16.34375 14.132812 16.34375 Z M 11.933594 17.417969 C 11.933594 17.703125 11.933594 17.988281 11.933594 18.28125 C 12.261719 18.28125 12.59375 18.28125 12.933594 18.28125 C 12.933594 17.996094 12.933594 17.710938 12.933594 17.417969 C 12.601562 17.417969 12.273438 17.417969 11.933594 17.417969 Z M 30.332031 17.417969 C 30.332031 17.773438 30.332031 18.128906 30.332031 18.496094 C 29.980469 18.496094 29.628906 18.496094 29.265625 18.496094 C 29.265625 18.777344 29.265625 19.0625 29.265625 19.355469 C 29.617188 19.355469 29.96875 19.355469 30.332031 19.355469 C 30.332031 19.710938 30.332031 20.066406 30.332031 20.429688 C 30.664062 20.429688 30.992188 20.429688 31.332031 20.429688 C 31.332031 19.4375 31.332031 18.441406 31.332031 17.417969 C 31.003906 17.417969 30.671875 17.417969 30.332031 17.417969 Z M 10.867188 18.496094 C 10.867188 18.777344 10.867188 19.0625 10.867188 19.355469 C 11.175781 19.355469 11.484375 19.355469 11.800781 19.355469 C 11.800781 19.070312 11.800781 18.785156 11.800781 18.496094 C 11.492188 18.496094 11.183594 18.496094 10.867188 18.496094 Z M 26 18.496094 C 26 18.777344 26 19.0625 26 19.355469 C 26.351562 19.355469 26.703125 19.355469 27.066406 19.355469 C 27.066406 19.710938 27.066406 20.066406 27.066406 20.429688 C 27.75 20.429688 28.429688 20.429688 29.132812 20.429688 C 29.132812 20.144531 29.132812 19.863281 29.132812 19.570312 C 28.78125 19.570312 28.429688 19.570312 28.066406 19.570312 C 28.066406 19.214844 28.066406 18.859375 28.066406 18.496094 C 27.382812 18.496094 26.703125 18.496094 26 18.496094 Z M 29.265625 20.644531 C 29.265625 20.929688 29.265625 21.214844 29.265625 21.503906 C 29.574219 21.503906 29.882812 21.503906 30.199219 21.503906 C 30.199219 21.222656 30.199219 20.9375 30.199219 20.644531 C 29.890625 20.644531 29.585938 20.644531 29.265625 20.644531 Z M 27.066406 21.71875 C 27.066406 22.003906 27.066406 22.289062 27.066406 22.582031 C 27.398438 22.582031 27.726562 22.582031 28.066406 22.582031 C 28.066406 22.296875 28.066406 22.011719 28.066406 21.71875 C 27.738281 21.71875 27.40625 21.71875 27.066406 21.71875 Z M 19.535156 22.796875 C 19.535156 23.078125 19.535156 23.363281 19.535156 23.65625 C 19.886719 23.65625 20.238281 23.65625 20.601562 23.65625 C 20.601562 24.011719 20.601562 24.367188 20.601562 24.730469 C 20.90625 24.730469 21.214844 24.730469 21.535156 24.730469 C 21.535156 24.09375 21.535156 23.453125 21.535156 22.796875 C 20.875 22.796875 20.214844 22.796875 19.535156 22.796875 Z M 11.933594 23.871094 C 11.933594 24.15625 11.933594 24.4375 11.933594 24.730469 C 12.261719 24.730469 12.59375 24.730469 12.933594 24.730469 C 12.933594 24.449219 12.933594 24.164062 12.933594 23.871094 C 12.601562 23.871094 12.273438 23.871094 11.933594 23.871094 Z M 15.199219 23.871094 C 15.199219 24.15625 15.199219 24.4375 15.199219 24.730469 C 15.507812 24.730469 15.816406 24.730469 16.132812 24.730469 C 16.132812 24.449219 16.132812 24.164062 16.132812 23.871094 C 15.824219 23.871094 15.515625 23.871094 15.199219 23.871094 Z M 10.867188 24.945312 C 10.867188 25.230469 10.867188 25.515625 10.867188 25.804688 C 11.175781 25.804688 11.484375 25.804688 11.800781 25.804688 C 11.800781 25.523438 11.800781 25.238281 11.800781 24.945312 C 11.492188 24.945312 11.183594 24.945312 10.867188 24.945312 Z M 13.066406 24.945312 C 13.066406 25.230469 13.066406 25.515625 13.066406 25.804688 C 13.375 25.804688 13.683594 25.804688 14 25.804688 C 14 25.523438 14 25.238281 14 24.945312 C 13.691406 24.945312 13.382812 24.945312 13.066406 24.945312 Z M 18.464844 24.945312 C 18.464844 25.230469 18.464844 25.515625 18.464844 25.804688 C 18.773438 25.804688 19.082031 25.804688 19.398438 25.804688 C 19.398438 25.523438 19.398438 25.238281 19.398438 24.945312 C 19.09375 24.945312 18.785156 24.945312 18.464844 24.945312 Z M 32.464844 24.945312 C 32.464844 25.976562 32.464844 27.003906 32.464844 28.066406 C 32.796875 28.066406 33.125 28.066406 33.464844 28.066406 C 33.464844 27.035156 33.464844 26.007812 33.464844 24.945312 C 33.136719 24.945312 32.808594 24.945312 32.464844 24.945312 Z M 14.132812 26.023438 C 14.132812 26.304688 14.132812 26.589844 14.132812 26.882812 C 14.441406 26.882812 14.75 26.882812 15.066406 26.882812 C 15.066406 26.597656 15.066406 26.3125 15.066406 26.023438 C 14.757812 26.023438 14.449219 26.023438 14.132812 26.023438 Z M 16.265625 26.023438 C 16.265625 26.375 16.265625 26.730469 16.265625 27.097656 C 15.914062 27.097656 15.5625 27.097656 15.199219 27.097656 C 15.199219 27.417969 15.199219 27.734375 15.199219 28.066406 C 16.585938 28.066406 17.972656 28.066406 19.398438 28.066406 C 19.398438 27.746094 19.398438 27.425781 19.398438 27.097656 C 18.695312 27.097656 17.992188 27.097656 17.265625 27.097656 C 17.265625 26.742188 17.265625 26.386719 17.265625 26.023438 C 16.9375 26.023438 16.605469 26.023438 16.265625 26.023438 Z M 19.535156 26.023438 C 19.535156 26.304688 19.535156 26.589844 19.535156 26.882812 C 20.191406 26.882812 20.851562 26.882812 21.535156 26.882812 C 21.535156 26.597656 21.535156 26.3125 21.535156 26.023438 C 20.875 26.023438 20.214844 26.023438 19.535156 26.023438 Z M 27.066406 27.097656 C 27.066406 28.125 27.066406 29.15625 27.066406 30.214844 C 28.101562 30.214844 29.132812 30.214844 30.199219 30.214844 C 30.199219 29.1875 30.199219 28.15625 30.199219 27.097656 C 29.164062 27.097656 28.132812 27.097656 27.066406 27.097656 Z M 33.601562 28.171875 C 33.601562 28.492188 33.601562 28.8125 33.601562 29.140625 C 33.90625 29.140625 34.214844 29.140625 34.535156 29.140625 C 34.535156 28.820312 34.535156 28.5 34.535156 28.171875 C 34.226562 28.171875 33.917969 28.171875 33.601562 28.171875 Z M 16.265625 29.246094 C 16.265625 29.566406 16.265625 29.886719 16.265625 30.214844 C 16.617188 30.214844 16.96875 30.214844 17.332031 30.214844 C 17.332031 30.605469 17.332031 30.996094 17.332031 31.398438 C 16.628906 31.398438 15.925781 31.398438 15.199219 31.398438 C 15.179688 31.753906 15.15625 32.109375 15.132812 32.472656 C 14.804688 32.507812 14.472656 32.542969 14.132812 32.582031 C 14.132812 32.863281 14.132812 33.148438 14.132812 33.441406 C 14.484375 33.441406 14.835938 33.441406 15.199219 33.441406 C 15.199219 33.796875 15.199219 34.152344 15.199219 34.515625 C 15.882812 34.515625 16.5625 34.515625 17.265625 34.515625 C 17.265625 33.804688 17.265625 33.097656 17.265625 32.367188 C 17.617188 32.367188 17.96875 32.367188 18.332031 32.367188 C 18.332031 31.335938 18.332031 30.308594 18.332031 29.246094 C 17.652344 29.246094 16.96875 29.246094 16.265625 29.246094 Z M 19.535156 29.246094 C 19.535156 29.566406 19.535156 29.886719 19.535156 30.214844 C 19.839844 30.214844 20.148438 30.214844 20.464844 30.214844 C 20.464844 29.894531 20.464844 29.578125 20.464844 29.246094 C 20.160156 29.246094 19.851562 29.246094 19.535156 29.246094 Z M 32.464844 29.246094 C 32.464844 29.601562 32.464844 29.957031 32.464844 30.324219 C 32.113281 30.324219 31.761719 30.324219 31.398438 30.324219 C 31.398438 31.351562 31.398438 32.378906 31.398438 33.441406 C 31.730469 33.441406 32.058594 33.441406 32.398438 33.441406 C 32.378906 32.730469 32.355469 32.023438 32.332031 31.289062 C 32.707031 31.289062 33.082031 31.289062 33.464844 31.289062 C 33.464844 30.617188 33.464844 29.941406 33.464844 29.246094 C 33.136719 29.246094 32.808594 29.246094 32.464844 29.246094 Z M 26 31.398438 C 26 31.71875 26 32.035156 26 32.367188 C 26.308594 32.367188 26.617188 32.367188 26.933594 32.367188 C 26.933594 32.046875 26.933594 31.726562 26.933594 31.398438 C 26.625 31.398438 26.316406 31.398438 26 31.398438 Z M 26 31.398438 "/>
<path style=" stroke:none;fill-rule:nonzero;fill:rgb(0%,0%,0%);fill-opacity:1;" d="M 4.265625 28.066406 C 6.796875 28.066406 9.328125 28.066406 11.933594 28.066406 C 11.933594 30.621094 11.933594 33.175781 11.933594 35.804688 C 9.402344 35.804688 6.875 35.804688 4.265625 35.804688 C 4.265625 33.25 4.265625 30.695312 4.265625 28.066406 Z M 5.464844 29.246094 C 5.464844 30.984375 5.464844 32.726562 5.464844 34.515625 C 7.203125 34.515625 8.941406 34.515625 10.734375 34.515625 C 10.734375 32.777344 10.734375 31.039062 10.734375 29.246094 C 8.996094 29.246094 7.257812 29.246094 5.464844 29.246094 Z M 5.464844 29.246094 "/>
<path style=" stroke:none;fill-rule:nonzero;fill:rgb(0%,0%,0%);fill-opacity:1;" d="M 28.066406 4.195312 C 30.597656 4.195312 33.125 4.195312 35.734375 4.195312 C 35.734375 6.75 35.734375 9.304688 35.734375 11.933594 C 33.203125 11.933594 30.671875 11.933594 28.066406 11.933594 C 28.066406 9.378906 28.066406 6.824219 28.066406 4.195312 Z M 29.265625 5.484375 C 29.265625 7.222656 29.265625 8.960938 29.265625 10.753906 C 31.003906 10.753906 32.742188 10.753906 34.535156 10.753906 C 34.535156 9.015625 34.535156 7.273438 34.535156 5.484375 C 32.796875 5.484375 31.058594 5.484375 29.265625 5.484375 Z M 29.265625 5.484375 "/>
<path style=" stroke:none;fill-rule:nonzero;fill:rgb(0%,0%,0%);fill-opacity:1;" d="M 4.265625 4.195312 C 6.796875 4.195312 9.328125 4.195312 11.933594 4.195312 C 11.933594 6.75 11.933594 9.304688 11.933594 11.933594 C 9.402344 11.933594 6.875 11.933594 4.265625 11.933594 C 4.265625 9.378906 4.265625 6.824219 4.265625 4.195312 Z M 5.464844 5.484375 C 5.464844 7.222656 5.464844 8.960938 5.464844 10.753906 C 7.203125 10.753906 8.941406 10.753906 10.734375 10.753906 C 10.734375 9.015625 10.734375 7.273438 10.734375 5.484375 C 8.996094 5.484375 7.257812 5.484375 5.464844 5.484375 Z M 5.464844 5.484375 "/>
<path style=" stroke:none;fill-rule:nonzero;fill:rgb(0%,0%,0%);fill-opacity:1;" d="M 6.398438 30.214844 C 7.523438 30.214844 8.644531 30.214844 9.800781 30.214844 C 9.800781 30.761719 9.804688 31.3125 9.804688 31.875 C 9.804688 32.046875 9.804688 32.222656 9.804688 32.398438 C 9.804688 32.535156 9.804688 32.667969 9.804688 32.808594 C 9.808594 32.949219 9.808594 33.085938 9.808594 33.230469 C 9.800781 33.546875 9.800781 33.546875 9.734375 33.65625 C 9.632812 33.667969 9.527344 33.667969 9.425781 33.667969 C 9.328125 33.671875 9.328125 33.671875 9.230469 33.671875 C 9.160156 33.671875 9.085938 33.671875 9.015625 33.671875 C 8.90625 33.671875 8.90625 33.671875 8.796875 33.671875 C 8.640625 33.671875 8.488281 33.671875 8.335938 33.671875 C 8.101562 33.667969 7.867188 33.671875 7.628906 33.671875 C 7.480469 33.671875 7.332031 33.671875 7.183594 33.671875 C 7.113281 33.671875 7.042969 33.671875 6.96875 33.671875 C 6.90625 33.671875 6.839844 33.671875 6.773438 33.667969 C 6.714844 33.667969 6.65625 33.667969 6.597656 33.667969 C 6.464844 33.65625 6.464844 33.65625 6.398438 33.546875 C 6.394531 33.300781 6.394531 33.054688 6.394531 32.808594 C 6.394531 32.671875 6.394531 32.539062 6.394531 32.398438 C 6.394531 32.226562 6.394531 32.054688 6.394531 31.875 C 6.398438 31.328125 6.398438 30.78125 6.398438 30.214844 Z M 6.398438 30.214844 "/>
<path style=" stroke:none;fill-rule:nonzero;fill:rgb(0%,0%,0%);fill-opacity:1;" d="M 30.574219 6.332031 C 30.671875 6.328125 30.671875 6.328125 30.769531 6.328125 C 30.839844 6.328125 30.914062 6.328125 30.984375 6.328125 C 31.09375 6.328125 31.09375 6.328125 31.203125 6.328125 C 31.359375 6.328125 31.511719 6.328125 31.664062 6.328125 C 31.898438 6.332031 32.132812 6.328125 32.371094 6.328125 C 32.519531 6.328125 32.667969 6.328125 32.816406 6.328125 C 32.886719 6.328125 32.957031 6.328125 33.03125 6.328125 C 33.09375 6.328125 33.160156 6.328125 33.226562 6.332031 C 33.285156 6.332031 33.34375 6.332031 33.402344 6.332031 C 33.535156 6.34375 33.535156 6.34375 33.601562 6.453125 C 33.605469 6.699219 33.605469 6.945312 33.605469 7.191406 C 33.605469 7.328125 33.605469 7.460938 33.605469 7.601562 C 33.605469 7.773438 33.605469 7.945312 33.605469 8.125 C 33.601562 8.671875 33.601562 9.21875 33.601562 9.785156 C 32.476562 9.785156 31.355469 9.785156 30.199219 9.785156 C 30.199219 9.238281 30.195312 8.6875 30.195312 8.125 C 30.195312 7.953125 30.195312 7.777344 30.195312 7.601562 C 30.195312 7.464844 30.195312 7.332031 30.195312 7.191406 C 30.191406 7.050781 30.191406 6.914062 30.191406 6.769531 C 30.203125 6.269531 30.292969 6.332031 30.574219 6.332031 Z M 30.574219 6.332031 "/>
<path style=" stroke:none;fill-rule:nonzero;fill:rgb(0%,0%,0%);fill-opacity:1;" d="M 6.773438 6.332031 C 6.871094 6.328125 6.871094 6.328125 6.96875 6.328125 C 7.042969 6.328125 7.113281 6.328125 7.183594 6.328125 C 7.292969 6.328125 7.292969 6.328125 7.40625 6.328125 C 7.558594 6.328125 7.710938 6.328125 7.863281 6.328125 C 8.097656 6.332031 8.335938 6.328125 8.570312 6.328125 C 8.71875 6.328125 8.867188 6.328125 9.015625 6.328125 C 9.085938 6.328125 9.15625 6.328125 9.230469 6.328125 C 9.292969 6.328125 9.359375 6.328125 9.425781 6.332031 C 9.484375 6.332031 9.542969 6.332031 9.601562 6.332031 C 9.734375 6.34375 9.734375 6.34375 9.800781 6.453125 C 9.804688 6.699219 9.808594 6.945312 9.804688 7.191406 C 9.804688 7.328125 9.804688 7.460938 9.804688 7.601562 C 9.804688 7.773438 9.804688 7.945312 9.804688 8.125 C 9.804688 8.671875 9.800781 9.21875 9.800781 9.785156 C 8.679688 9.785156 7.554688 9.785156 6.398438 9.785156 C 6.398438 9.238281 6.398438 8.6875 6.394531 8.125 C 6.394531 7.953125 6.394531 7.777344 6.394531 7.601562 C 6.394531 7.464844 6.394531 7.332031 6.394531 7.191406 C 6.394531 7.050781 6.394531 6.914062 6.390625 6.769531 C 6.40625 6.269531 6.492188 6.332031 6.773438 6.332031 Z M 6.773438 6.332031 "/>
<path style=" stroke:none;fill-rule:nonzero;fill:rgb(0%,0%,0%);fill-opacity:1;" d="M 14 4.195312 C 14.394531 4.195312 14.792969 4.195312 15.199219 4.195312 C 15.199219 4.546875 15.199219 4.902344 15.199219 5.269531 C 15.507812 5.269531 15.816406 5.269531 16.132812 5.269531 C 16.132812 5.113281 16.128906 4.953125 16.128906 4.792969 C 16.128906 4.628906 16.128906 4.464844 16.132812 4.300781 C 16.199219 4.195312 16.199219 4.195312 16.453125 4.183594 C 16.558594 4.183594 16.664062 4.183594 16.769531 4.1875 C 16.824219 4.1875 16.878906 4.1875 16.933594 4.1875 C 17.066406 4.191406 17.199219 4.191406 17.332031 4.195312 C 17.332031 4.621094 17.332031 5.046875 17.332031 5.484375 C 16.980469 5.484375 16.628906 5.484375 16.265625 5.484375 C 16.265625 6.195312 16.265625 6.902344 16.265625 7.632812 C 15.871094 7.632812 15.476562 7.632812 15.066406 7.632812 C 15.066406 7.28125 15.066406 6.925781 15.066406 6.558594 C 14.714844 6.558594 14.363281 6.558594 14 6.558594 C 14 5.777344 14 4.996094 14 4.195312 Z M 14 4.195312 "/>
<path style=" stroke:none;fill-rule:nonzero;fill:rgb(0%,0%,0%);fill-opacity:1;" d="M 33.464844 17.203125 C 33.863281 17.203125 34.257812 17.203125 34.667969 17.203125 C 34.667969 17.558594 34.667969 17.914062 34.667969 18.28125 C 35.019531 18.28125 35.371094 18.28125 35.734375 18.28125 C 35.734375 19.058594 35.734375 19.839844 35.734375 20.644531 C 35.335938 20.644531 34.941406 20.644531 34.535156 20.644531 C 34.535156 19.933594 34.535156 19.226562 34.535156 18.496094 C 34.179688 18.496094 33.828125 18.496094 33.464844 18.496094 C 33.464844 18.070312 33.464844 17.644531 33.464844 17.203125 Z M 33.464844 17.203125 "/>
<path style=" stroke:none;fill-rule:nonzero;fill:rgb(0%,0%,0%);fill-opacity:1;" d="M 34.535156 34.515625 C 34.929688 34.515625 35.324219 34.515625 35.734375 34.515625 C 35.734375 34.941406 35.734375 35.367188 35.734375 35.804688 C 35.335938 35.804688 34.941406 35.804688 34.535156 35.804688 C 34.535156 35.378906 34.535156 34.953125 34.535156 34.515625 Z M 34.535156 34.515625 "/>
<path style=" stroke:none;fill-rule:nonzero;fill:rgb(0%,0%,0%);fill-opacity:1;" d="M 13.382812 7.40625 C 13.457031 7.40625 13.457031 7.40625 13.535156 7.40625 C 13.582031 7.40625 13.632812 7.40625 13.683594 7.40625 C 14.058594 7.40625 14.058594 7.40625 14.132812 7.527344 C 14.144531 7.921875 14.136719 8.316406 14.132812 8.710938 C 13.738281 8.710938 13.339844 8.710938 12.933594 8.710938 C 12.925781 7.796875 12.925781 7.796875 12.933594 7.527344 C 13.054688 7.332031 13.21875 7.40625 13.382812 7.40625 Z M 13.382812 7.40625 "/>
<path style=" stroke:none;fill-rule:nonzero;fill:rgb(0%,0%,0%);fill-opacity:1;" d="M 28.066406 28.066406 C 28.460938 28.066406 28.859375 28.066406 29.265625 28.066406 C 29.265625 28.453125 29.265625 28.84375 29.265625 29.246094 C 28.871094 29.246094 28.476562 29.246094 28.066406 29.246094 C 28.066406 28.855469 28.066406 28.464844 28.066406 28.066406 Z M 28.066406 28.066406 "/>
</g>
</svg>
