<?xml version="1.0" encoding="UTF-8"?>
<svg xmlns="http://www.w3.org/2000/svg" xmlns:xlink="http://www.w3.org/1999/xlink" width="20px" height="20px" viewBox="0 0 20 20" version="1.1">
<g id="surface1">
<path style=" stroke:#4D97FF;stroke-width:0.5;fill-rule:nonzero;fill:rgb(0%,0%,0%);fill-opacity:1;" d="M 19.519531 16.660156 C 19.691406 16.660156 19.832031 16.519531 19.832031 16.347656 L 19.832031 3.320312 C 19.832031 3.238281 19.796875 3.15625 19.738281 3.097656 L 16.734375 0.0898438 C 16.675781 0.0351562 16.59375 0 16.511719 0 L 4.152344 0 C 3.613281 0 3.171875 0.441406 3.171875 0.980469 L 3.171875 1.335938 L 0.480469 1.335938 C 0.207031 1.335938 0.0625 1.675781 0.257812 1.871094 L 2.707031 4.320312 L 0.257812 6.773438 C 0.0625 6.964844 0.207031 7.308594 0.480469 7.308594 L 3.171875 7.308594 L 3.171875 19.019531 C 3.171875 19.558594 3.613281 20 4.152344 20 L 18.851562 20 C 19.390625 20 19.832031 19.558594 19.832031 19.019531 L 19.832031 17.683594 C 19.832031 17.507812 19.691406 17.371094 19.519531 17.371094 C 19.34375 17.371094 19.207031 17.507812 19.207031 17.683594 L 19.207031 19.019531 C 19.207031 19.214844 19.046875 19.375 18.851562 19.375 L 4.152344 19.375 C 3.957031 19.375 3.796875 19.214844 3.796875 19.019531 L 3.796875 7.308594 L 5.824219 7.308594 C 5.996094 7.308594 6.136719 7.167969 6.136719 6.992188 C 6.136719 6.820312 5.996094 6.679688 5.824219 6.679688 L 1.234375 6.679688 L 3.371094 4.542969 C 3.496094 4.421875 3.496094 4.222656 3.371094 4.101562 L 1.234375 1.960938 L 14.863281 1.960938 L 14.863281 6.679688 L 7.160156 6.679688 C 6.988281 6.679688 6.847656 6.820312 6.847656 6.992188 C 6.847656 7.167969 6.988281 7.308594 7.160156 7.308594 L 15.175781 7.308594 C 15.347656 7.308594 15.488281 7.167969 15.488281 6.992188 L 15.488281 1.648438 C 15.488281 1.476562 15.347656 1.335938 15.175781 1.335938 L 3.796875 1.335938 L 3.796875 0.980469 C 3.796875 0.785156 3.957031 0.625 4.152344 0.625 L 16.199219 0.625 L 16.199219 2.652344 C 16.199219 3.191406 16.640625 3.632812 17.179688 3.632812 L 19.207031 3.632812 L 19.207031 16.347656 C 19.207031 16.519531 19.34375 16.660156 19.519531 16.660156 Z M 17.179688 3.007812 C 16.984375 3.007812 16.824219 2.847656 16.824219 2.652344 L 16.824219 1.070312 L 18.761719 3.007812 Z M 17.179688 3.007812 "/>
<path style=" stroke:#4D97FF;stroke-width:0.5;fill-rule:nonzero;fill:rgb(0%,0%,0%);fill-opacity:1;" d="M 7.492188 5.011719 L 6.804688 5.011719 L 6.804688 3.632812 L 7.492188 3.632812 C 7.667969 3.632812 7.808594 3.492188 7.808594 3.320312 C 7.808594 3.144531 7.667969 3.007812 7.492188 3.007812 L 6.492188 3.007812 C 6.320312 3.007812 6.179688 3.144531 6.179688 3.320312 L 6.179688 5.324219 C 6.179688 5.496094 6.320312 5.636719 6.492188 5.636719 L 7.492188 5.636719 C 7.667969 5.636719 7.808594 5.496094 7.808594 5.324219 C 7.808594 5.152344 7.667969 5.011719 7.492188 5.011719 Z M 7.492188 5.011719 "/>
<path style=" stroke:#4D97FF;fstroke-width:0.5;ill-rule:nonzero;fill:rgb(0%,0%,0%);fill-opacity:1;" d="M 9.496094 4.007812 L 8.808594 4.007812 L 8.808594 3.632812 L 9.496094 3.632812 C 9.671875 3.632812 9.8125 3.492188 9.8125 3.320312 C 9.8125 3.144531 9.671875 3.007812 9.496094 3.007812 L 8.496094 3.007812 C 8.324219 3.007812 8.183594 3.144531 8.183594 3.320312 L 8.183594 4.320312 C 8.183594 4.496094 8.324219 4.632812 8.496094 4.632812 L 9.183594 4.632812 L 9.183594 5.011719 L 8.496094 5.011719 C 8.324219 5.011719 8.183594 5.152344 8.183594 5.324219 C 8.183594 5.496094 8.324219 5.636719 8.496094 5.636719 L 9.496094 5.636719 C 9.671875 5.636719 9.8125 5.496094 9.8125 5.324219 L 9.8125 4.320312 C 9.8125 4.148438 9.671875 4.007812 9.496094 4.007812 Z M 9.496094 4.007812 "/>
<path style=" stroke:#4D97FF;stroke-width:0.5;fill-rule:nonzero;fill:rgb(0%,0%,0%);fill-opacity:1;" d="M 11.933594 3.023438 C 11.773438 2.96875 11.59375 3.058594 11.539062 3.21875 L 11.167969 4.332031 L 10.796875 3.21875 C 10.742188 3.054688 10.566406 2.96875 10.402344 3.023438 C 10.238281 3.078125 10.148438 3.253906 10.203125 3.417969 L 10.871094 5.421875 C 10.914062 5.550781 11.03125 5.636719 11.167969 5.636719 C 11.300781 5.636719 11.421875 5.550781 11.464844 5.421875 L 12.132812 3.417969 C 12.1875 3.257812 12.097656 3.078125 11.933594 3.023438 Z M 11.933594 3.023438 "/>
<path style=" stroke:#4D97FF;stroke-width:0.5;fill-rule:nonzero;fill:rgb(0%,0%,0%);fill-opacity:1;" d="M 16.179688 8.351562 L 6.824219 8.351562 C 6.46875 8.351562 6.179688 8.640625 6.179688 8.996094 L 6.179688 17.683594 C 6.179688 18.039062 6.46875 18.328125 6.824219 18.328125 L 16.179688 18.328125 C 16.535156 18.328125 16.824219 18.039062 16.824219 17.683594 L 16.824219 8.996094 C 16.824219 8.640625 16.535156 8.351562 16.179688 8.351562 Z M 16.199219 17.683594 C 16.199219 17.695312 16.191406 17.703125 16.179688 17.703125 L 6.824219 17.703125 C 6.8125 17.703125 6.804688 17.695312 6.804688 17.683594 L 6.804688 8.996094 C 6.804688 8.988281 6.8125 8.976562 6.824219 8.976562 L 16.179688 8.976562 C 16.191406 8.976562 16.199219 8.988281 16.199219 8.996094 Z M 16.199219 17.683594 "/>
<path style=" stroke:#4D97FF;stroke-width:0.5;fill-rule:nonzero;fill:rgb(0%,0%,0%);fill-opacity:1;" d="M 9.496094 10.019531 L 8.160156 10.019531 C 7.988281 10.019531 7.847656 10.160156 7.847656 10.335938 C 7.847656 10.507812 7.988281 10.648438 8.160156 10.648438 L 9.496094 10.648438 C 9.671875 10.648438 9.8125 10.507812 9.8125 10.335938 C 9.8125 10.160156 9.671875 10.019531 9.496094 10.019531 Z M 9.496094 10.019531 "/>
<path style=" stroke:#4D97FF;stroke-width:0.5;fill-rule:nonzero;fill:rgb(0%,0%,0%);fill-opacity:1;" d="M 14.84375 10.019531 L 10.832031 10.019531 C 10.660156 10.019531 10.519531 10.160156 10.519531 10.335938 C 10.519531 10.507812 10.660156 10.648438 10.832031 10.648438 L 14.84375 10.648438 C 15.015625 10.648438 15.15625 10.507812 15.15625 10.335938 C 15.15625 10.160156 15.015625 10.019531 14.84375 10.019531 Z M 14.84375 10.019531 "/>
<path style=" stroke:#4D97FF;stroke-width:0.5;fill-rule:nonzero;fill:rgb(0%,0%,0%);fill-opacity:1;" d="M 9.496094 12.023438 L 8.160156 12.023438 C 7.988281 12.023438 7.847656 12.164062 7.847656 12.339844 C 7.847656 12.511719 7.988281 12.652344 8.160156 12.652344 L 9.496094 12.652344 C 9.671875 12.652344 9.8125 12.511719 9.8125 12.339844 C 9.8125 12.164062 9.671875 12.023438 9.496094 12.023438 Z M 9.496094 12.023438 "/>
<path style=" stroke:#4D97FF;stroke-width:0.5;fill-rule:nonzero;fill:rgb(0%,0%,0%);fill-opacity:1;" d="M 14.84375 12.023438 L 10.832031 12.023438 C 10.660156 12.023438 10.519531 12.164062 10.519531 12.339844 C 10.519531 12.511719 10.660156 12.652344 10.832031 12.652344 L 14.84375 12.652344 C 15.015625 12.652344 15.15625 12.511719 15.15625 12.339844 C 15.15625 12.164062 15.015625 12.023438 14.84375 12.023438 Z M 14.84375 12.023438 "/>
<path style=" stroke:#4D97FF;stroke-width:0.5;fill-rule:nonzero;fill:rgb(0%,0%,0%);fill-opacity:1;" d="M 9.496094 14.027344 L 8.160156 14.027344 C 7.988281 14.027344 7.847656 14.167969 7.847656 14.34375 C 7.847656 14.515625 7.988281 14.65625 8.160156 14.65625 L 9.496094 14.65625 C 9.671875 14.65625 9.8125 14.515625 9.8125 14.34375 C 9.8125 14.167969 9.671875 14.027344 9.496094 14.027344 Z M 9.496094 14.027344 "/>
<path style=" stroke:#4D97FF;stroke-width:0.5;fill-rule:nonzero;fill:rgb(0%,0%,0%);fill-opacity:1;" d="M 11.835938 14.027344 L 10.832031 14.027344 C 10.660156 14.027344 10.519531 14.167969 10.519531 14.34375 C 10.519531 14.515625 10.660156 14.65625 10.832031 14.65625 L 11.835938 14.65625 C 12.007812 14.65625 12.148438 14.515625 12.148438 14.34375 C 12.148438 14.167969 12.007812 14.027344 11.835938 14.027344 Z M 11.835938 14.027344 "/>
<path style=" stroke:#4D97FF;stroke-width:0.5;fill-rule:nonzero;fill:rgb(0%,0%,0%);fill-opacity:1;" d="M 9.496094 16.035156 L 8.160156 16.035156 C 7.988281 16.035156 7.847656 16.171875 7.847656 16.347656 C 7.847656 16.519531 7.988281 16.660156 8.160156 16.660156 L 9.496094 16.660156 C 9.671875 16.660156 9.8125 16.519531 9.8125 16.347656 C 9.8125 16.171875 9.671875 16.035156 9.496094 16.035156 Z M 9.496094 16.035156 "/>
<path style=" stroke:#4D97FF;stroke-width:0.5;fill-rule:nonzero;fill:rgb(0%,0%,0%);fill-opacity:1;" d="M 11.835938 16.035156 L 10.832031 16.035156 C 10.660156 16.035156 10.519531 16.171875 10.519531 16.347656 C 10.519531 16.519531 10.660156 16.660156 10.832031 16.660156 L 11.835938 16.660156 C 12.007812 16.660156 12.148438 16.519531 12.148438 16.347656 C 12.148438 16.171875 12.007812 16.035156 11.835938 16.035156 Z M 11.835938 16.035156 "/>
<path style=" stroke:#4D97FF;stroke-width:0.5;fill-rule:nonzero;fill:rgb(0%,0%,0%);fill-opacity:1;" d="M 14.414062 15.34375 L 15.082031 14.542969 C 15.195312 14.410156 15.175781 14.210938 15.042969 14.101562 C 14.910156 13.992188 14.710938 14.007812 14.601562 14.140625 L 14.007812 14.855469 L 13.414062 14.140625 C 13.300781 14.007812 13.105469 13.992188 12.972656 14.101562 C 12.839844 14.210938 12.820312 14.410156 12.929688 14.542969 L 13.597656 15.34375 L 12.929688 16.144531 C 12.832031 16.265625 12.835938 16.449219 12.945312 16.5625 C 13.074219 16.695312 13.292969 16.6875 13.414062 16.546875 L 14.007812 15.832031 L 14.601562 16.546875 C 14.71875 16.6875 14.941406 16.695312 15.070312 16.5625 C 15.175781 16.449219 15.183594 16.265625 15.082031 16.144531 Z M 14.414062 15.34375 "/>
</g>
</svg>
