<?xml version="1.0" encoding="UTF-8"?>
<svg version="1.1" xmlns="http://www.w3.org/2000/svg" width="512" height="512">
<path d="M0 0 C7.56773682 5.2845376 13.9295508 12.78810464 20.44287109 19.31347656 C21.68196329 20.55121161 22.92126766 21.78873429 24.1607666 23.02606201 C27.50562878 26.36638957 30.84734948 29.70984307 34.18835402 33.05402851 C37.69060634 36.55882218 41.19530868 40.06116456 44.69961548 43.56390381 C50.577096 49.43956902 56.45247349 55.31733095 62.32666016 61.19628906 C69.11975586 67.99483883 75.91646358 74.7897616 82.71503389 81.58283639 C88.55820791 87.4214762 94.39943574 93.26205769 100.23903334 99.10427451 C103.72444624 102.59124685 107.21053238 106.07753891 110.6983757 109.56208038 C113.97236149 112.83318258 117.24390098 116.10671168 120.5135498 119.38214874 C121.71481144 120.58473479 122.91692887 121.78646667 124.11995316 122.98728943 C125.75891392 124.62352659 127.39477758 126.26279828 129.02987671 127.90289307 C130.4052765 129.27885839 130.4052765 129.27885839 131.80846214 130.682621 C134.85621427 133.90537928 136.36951969 136.16023924 136.6875 140.5625 C136.51315615 145.19505138 135.40844006 147.21743719 132.23309326 150.55371094 C131.41144432 151.42386841 130.58979538 152.29402588 129.74324799 153.19055176 C128.83797615 154.11766968 127.93270432 155.0447876 127 156 C126.54128037 156.47245651 126.08256075 156.94491302 125.60994053 157.4316864 C121.96645367 161.17940123 118.27727021 164.88056532 114.58300781 168.578125 C113.35809351 169.80767921 112.1333727 171.03742621 110.90882874 172.26734924 C107.61204142 175.57713386 104.31203272 178.88368699 101.01097584 182.1892128 C98.94622115 184.2569137 96.8820483 186.32519375 94.81804657 188.39364624 C88.35171416 194.8736087 81.8834165 201.3515997 75.41220498 207.82668972 C67.95486626 215.28852404 60.50414321 222.75688309 53.05900502 230.23089027 C47.2891354 236.02235351 41.51353607 241.80806137 35.73352885 247.58940697 C32.2864065 251.0375773 28.8417576 254.48813508 25.40305328 257.94470215 C22.17561744 261.18858245 18.94113961 264.42526964 15.70107841 267.65653801 C14.5136978 268.8431468 13.32888064 270.03232709 12.14682961 271.22424507 C10.5334622 272.85028856 8.91112153 274.46681957 7.28619385 276.08129883 C5.92795187 277.44174065 5.92795187 277.44174065 4.54227066 278.82966614 C0.7465238 282.07009135 -1.83870508 282.98096238 -6.8125 283.0625 C-15.95848322 281.53940174 -23.41113991 270.77512317 -29.74755859 264.43774414 C-31.3875231 262.79999381 -33.03536992 261.17044863 -34.68359375 259.54101562 C-35.73486283 258.49267646 -36.78566147 257.4438653 -37.8359375 256.39453125 C-38.3254892 255.91216507 -38.81504089 255.42979889 -39.31942749 254.93281555 C-42.96698699 251.26056614 -44.80216669 248.78049981 -45.375 243.625 C-44.54193586 235.57204669 -37.57210255 230.29854055 -32.10058594 224.87353516 C-31.20267334 223.97533051 -30.30476074 223.07712585 -29.37963867 222.15170288 C-26.92986511 219.70135789 -24.47399513 217.25720817 -22.01694775 214.81415987 C-19.44555087 212.25530541 -16.87985484 209.69074759 -14.3135376 207.12680054 C-9.45860348 202.2780709 -4.59859586 197.43446008 0.26327491 192.59268701 C5.80047572 187.07787739 11.33196671 181.55735573 16.86299562 176.03635716 C28.23567509 164.6845563 39.61547041 153.33991681 51 142 C49.56633752 138.72492206 47.8096446 136.56592687 45.28027344 134.05322266 C44.50631226 133.27940247 43.73235107 132.50558228 42.93493652 131.70831299 C42.08500122 130.86871033 41.23506592 130.02910767 40.359375 129.1640625 C38.9864772 127.79564765 37.61357966 126.42723254 36.24069214 125.05880737 C34.76622121 123.59107275 33.28929377 122.12585135 31.81164551 120.66131592 C28.73060179 117.60733619 25.657218 114.54572548 22.58496094 111.48291016 C16.06253339 104.98267527 9.53170211 98.49091336 3 92 C-4.05158443 84.99245085 -11.10171906 77.98348048 -18.14213181 70.96470451 C-21.19625795 67.92054198 -24.2551946 64.88132285 -27.31790161 61.84579468 C-28.76348892 60.41153478 -30.20677136 58.97500315 -31.64904785 57.53741455 C-33.4071981 55.78500523 -35.16895271 54.03620181 -36.93493652 52.29168701 C-38.0958783 51.13095673 -38.0958783 51.13095673 -39.28027344 49.94677734 C-40.29127106 48.94244156 -40.29127106 48.94244156 -41.32269287 47.91781616 C-43.99916443 44.8575654 -44.92490969 42.67581278 -45.375 38.625 C-44.65320636 31.6476615 -39.41661554 27.10830989 -34.66015625 22.359375 C-34.05618515 21.75111877 -33.45221405 21.14286255 -32.8299408 20.51617432 C-31.55917225 19.23969272 -30.28581552 17.965783 -29.01000977 16.69433594 C-27.06309209 14.75059112 -25.12991465 12.79385792 -23.19726562 10.8359375 C-21.95654014 9.59293998 -20.71503007 8.35072501 -19.47265625 7.109375 C-18.89854507 6.52605408 -18.3244339 5.94273315 -17.73292542 5.34173584 C-12.47110828 0.13980395 -7.51998368 -2.57515501 0 0 Z " fill="#000000" transform="translate(376,115)"/>
<path d="M0 0 C6.92508842 4.84687537 12.77736171 11.59115413 18.74755859 17.56225586 C20.3875231 19.20000619 22.03536992 20.82955137 23.68359375 22.45898438 C24.73486283 23.50732354 25.78566147 24.5561347 26.8359375 25.60546875 C27.3254892 26.08783493 27.81504089 26.57020111 28.31942749 27.06718445 C31.96698699 30.73943386 33.80216669 33.21950019 34.375 38.375 C33.54193586 46.42795331 26.57210255 51.70145945 21.10058594 57.12646484 C20.20267334 58.02466949 19.30476074 58.92287415 18.37963867 59.84829712 C15.92986511 62.29864211 13.47399513 64.74279183 11.01694775 67.18584013 C8.44555087 69.74469459 5.87985484 72.30925241 3.3135376 74.87319946 C-1.54139652 79.7219291 -6.40140414 84.56553992 -11.26327491 89.40731299 C-16.80047572 94.92212261 -22.33196671 100.44264427 -27.86299562 105.96364284 C-39.23567509 117.3154437 -50.61547041 128.66008319 -62 140 C-60.56633752 143.27507794 -58.8096446 145.43407313 -56.28027344 147.94677734 C-55.50631226 148.72059753 -54.73235107 149.49441772 -53.93493652 150.29168701 C-53.08500122 151.13128967 -52.23506592 151.97089233 -51.359375 152.8359375 C-49.9864772 154.20435235 -48.61357966 155.57276746 -47.24069214 156.94119263 C-45.76622121 158.40892725 -44.28929377 159.87414865 -42.81164551 161.33868408 C-39.73060179 164.39266381 -36.657218 167.45427452 -33.58496094 170.51708984 C-27.06253339 177.01732473 -20.53170211 183.50908664 -14 190 C-6.94841557 197.00754915 0.10171906 204.01651952 7.14213181 211.03529549 C10.19625795 214.07945802 13.2551946 217.11867715 16.31790161 220.15420532 C17.76348892 221.58846522 19.20677136 223.02499685 20.64904785 224.46258545 C22.4071981 226.21499477 24.16895271 227.96379819 25.93493652 229.70831299 C26.70889771 230.48213318 27.48285889 231.25595337 28.28027344 232.05322266 C28.95427185 232.72277985 29.62827026 233.39233704 30.32269287 234.08218384 C32.99916443 237.1424346 33.92490969 239.32418722 34.375 243.375 C33.65320636 250.3523385 28.41661554 254.89169011 23.66015625 259.640625 C23.05618515 260.24888123 22.45221405 260.85713745 21.8299408 261.48382568 C20.55917225 262.76030728 19.28581552 264.034217 18.01000977 265.30566406 C16.06309209 267.24940888 14.12991465 269.20614208 12.19726562 271.1640625 C10.95654014 272.40706002 9.71503007 273.64927499 8.47265625 274.890625 C7.89854507 275.47394592 7.3244339 276.05726685 6.73292542 276.65826416 C2.46374912 280.87885255 -0.6094566 282.96081076 -6.8125 283.0625 C-16.48614831 281.44947914 -24.7237075 269.41811953 -31.44287109 262.68652344 C-32.68196329 261.44878839 -33.92126766 260.21126571 -35.1607666 258.97393799 C-38.50562878 255.63361043 -41.84734948 252.29015693 -45.18835402 248.94597149 C-48.69060634 245.44117782 -52.19530868 241.93883544 -55.69961548 238.43609619 C-61.577096 232.56043098 -67.45247349 226.68266905 -73.32666016 220.80371094 C-80.11975586 214.00516117 -86.91646358 207.2102384 -93.71503389 200.41716361 C-99.55820791 194.5785238 -105.39943574 188.73794231 -111.23903334 182.89572549 C-114.72444624 179.40875315 -118.21053238 175.92246109 -121.6983757 172.43791962 C-124.97236149 169.16681742 -128.24390098 165.89328832 -131.5135498 162.61785126 C-132.71481144 161.41526521 -133.91692887 160.21353333 -135.11995316 159.01271057 C-136.75891392 157.37647341 -138.39477758 155.73720172 -140.02987671 154.09710693 C-140.9468099 153.17979671 -141.8637431 152.2624865 -142.80846214 151.317379 C-145.85621427 148.09462072 -147.36951969 145.83976076 -147.6875 141.4375 C-147.51315615 136.80494862 -146.40844006 134.78256281 -143.23309326 131.44628906 C-142.41144432 130.57613159 -141.58979538 129.70597412 -140.74324799 128.80944824 C-139.83797615 127.88233032 -138.93270432 126.9552124 -138 126 C-137.31192056 125.29131523 -137.31192056 125.29131523 -136.60994053 124.5683136 C-132.96645367 120.82059877 -129.27727021 117.11943468 -125.58300781 113.421875 C-124.35809351 112.19232079 -123.1333727 110.96257379 -121.90882874 109.73265076 C-118.61204142 106.42286614 -115.31203272 103.11631301 -112.01097584 99.8107872 C-109.94622115 97.7430863 -107.8820483 95.67480625 -105.81804657 93.60635376 C-99.35171416 87.1263913 -92.8834165 80.6484003 -86.41220498 74.17331028 C-78.95486626 66.71147596 -71.50414321 59.24311691 -64.05900502 51.76910973 C-58.2891354 45.97764649 -52.51353607 40.19193863 -46.73352885 34.41059303 C-43.2864065 30.9624227 -39.8417576 27.51186492 -36.40305328 24.05529785 C-33.17561744 20.81141755 -29.94113961 17.57473036 -26.70107841 14.34346199 C-25.5136978 13.1568532 -24.32888064 11.96767291 -23.14682961 10.77575493 C-21.5334622 9.14971144 -19.91112153 7.53318043 -18.28619385 5.91870117 C-17.3806992 5.01173996 -16.47520454 4.10477875 -15.54227066 3.17033386 C-10.75721425 -0.9146639 -6.04956611 -2.07279376 0 0 Z " fill="#000000" transform="translate(147,115)"/>
<path d="M0 0 C1.010625 0.29197266 2.02125 0.58394531 3.0625 0.88476562 C8.89577735 2.66460419 13.12030625 4.38111631 17.375 8.8125 C19.35113387 14.74090162 18.29714962 19.9461977 16.53686523 25.80493164 C16.33919744 26.47248946 16.14152966 27.14004728 15.93787193 27.82783413 C15.27876019 30.0455675 14.6061782 32.25897516 13.93359375 34.47265625 C13.45825463 36.06268864 12.98380487 37.65298713 12.51017761 39.24353027 C11.49077454 42.66052623 10.46551079 46.07568668 9.43560791 49.48953247 C7.78713445 54.95427018 6.151931 60.42292208 4.51904297 65.89233398 C2.82205613 71.57451752 1.12437586 77.25648683 -0.57769775 82.93714905 C-5.63658483 99.82263801 -10.63088369 116.72673659 -15.60583496 133.63711548 C-17.73428274 140.87152396 -19.86674168 148.10475044 -21.99899673 155.33803749 C-22.72383521 157.79696825 -23.44857553 160.25592792 -24.17330933 162.71488953 C-29.91910587 182.20839778 -35.67815619 201.69799085 -41.4375 221.1875 C-41.70540848 222.09410873 -41.97331696 223.00071747 -42.24934387 223.93479919 C-44.69661486 232.21639961 -47.14397303 240.49797426 -49.59146118 248.7795105 C-53.35274285 261.50661226 -57.11316823 274.23396681 -60.87306023 286.96147919 C-61.7653417 289.98191184 -62.65763915 293.00233978 -63.54994202 296.02276611 C-64.13705446 298.01013183 -64.72416689 299.99749755 -65.3112793 301.98486328 C-65.74320949 303.44693962 -65.74320949 303.44693962 -66.18386555 304.93855286 C-67.58849258 309.69321402 -68.99308853 314.44788437 -70.39761353 319.20257568 C-70.6637423 320.10342644 -70.92987108 321.00427719 -71.20406437 321.93242645 C-71.73069762 323.71529353 -72.25721077 325.49819609 -72.7835989 327.28113556 C-74.03384655 331.51516964 -75.2862012 335.74855315 -76.54380798 339.98040771 C-78.53499051 346.68693066 -80.5210763 353.39298776 -82.40458107 360.13069248 C-82.94710135 362.07042632 -83.49649835 364.00823273 -84.04611206 365.94596863 C-84.69325138 368.23388584 -85.32779415 370.52542518 -85.94631958 372.82124329 C-87.56731293 378.50792508 -88.8880663 382.15170442 -93.625 385.8125 C-100.28388781 389.1419439 -108.67219261 385.66682582 -115.25 383.625 C-116.260625 383.33302734 -117.27125 383.04105469 -118.3125 382.74023438 C-124.14577735 380.96039581 -128.37030625 379.24388369 -132.625 374.8125 C-134.60113387 368.88409838 -133.54714962 363.6788023 -131.78686523 357.82006836 C-131.58919744 357.15251054 -131.39152966 356.48495272 -131.18787193 355.79716587 C-130.52876019 353.5794325 -129.8561782 351.36602484 -129.18359375 349.15234375 C-128.70825463 347.56231136 -128.23380487 345.97201287 -127.76017761 344.38146973 C-126.74077454 340.96447377 -125.71551079 337.54931332 -124.68560791 334.13546753 C-123.03713445 328.67072982 -121.401931 323.20207792 -119.76904297 317.73266602 C-118.07205613 312.05048248 -116.37437586 306.36851317 -114.67230225 300.68785095 C-109.61341517 283.80236199 -104.61911631 266.89826341 -99.64416504 249.98788452 C-97.51571726 242.75347604 -95.38325832 235.52024956 -93.25100327 228.28696251 C-92.52616479 225.82803175 -91.80142447 223.36907208 -91.07669067 220.91011047 C-84.25192895 197.75604507 -77.40965818 174.60714674 -70.56738281 151.45825195 C-69.47850103 147.77425562 -68.38963835 144.09025363 -67.30078125 140.40625 C-66.89492861 139.03314446 -66.89492861 139.03314446 -66.48087692 137.63229942 C-62.44194902 123.96709233 -58.40810148 110.30039254 -54.37693977 96.63289261 C-52.60721391 90.63331299 -50.83668393 84.63397062 -49.06613445 78.63463402 C-47.66074394 73.87232205 -46.25589138 69.10985291 -44.85238647 64.34698486 C-34.92419766 30.65726765 -34.92419766 30.65726765 -30.0078125 14.5546875 C-29.52874954 12.97495651 -29.52874954 12.97495651 -29.04000854 11.36331177 C-28.7472403 10.41181244 -28.45447205 9.46031311 -28.15283203 8.47998047 C-27.90373077 7.66705536 -27.65462952 6.85413025 -27.39797974 6.01657104 C-26.21777398 2.65133749 -25.28193868 0.35350833 -22.5 -1.9375 C-15.00579818 -5.19584862 -7.39155055 -2.2944209 0 0 Z " fill="#000000" transform="translate(313.625,64.1875)"/>
</svg>
